<mxfile host="app.diagrams.net" modified="2023-11-24T23:37:25.180Z" agent="Mozilla/5.0 (Windows NT 10.0; Win64; x64) AppleWebKit/537.36 (KHTML, like Gecko) Chrome/119.0.0.0 Safari/537.36 Edg/119.0.0.0" etag="VW5XwBw20VRk3o1Cl0gk" version="22.1.4" type="device">
  <diagram name="Page-1" id="mUyAikBEkfKeO0XjISf7">
    <mxGraphModel dx="1106" dy="623" grid="1" gridSize="10" guides="1" tooltips="1" connect="1" arrows="1" fold="1" page="1" pageScale="1" pageWidth="850" pageHeight="1100" math="0" shadow="0">
      <root>
        <mxCell id="0" />
        <mxCell id="1" parent="0" />
        <mxCell id="HVUczFYNgCfFE6jhYIkl-3" value="" style="sketch=0;html=1;aspect=fixed;strokeColor=none;shadow=0;fillColor=#3B8DF1;verticalAlign=top;labelPosition=center;verticalLabelPosition=bottom;shape=mxgraph.gcp2.phone_android" parent="1" vertex="1">
          <mxGeometry x="240" y="50" width="358.4" height="640" as="geometry" />
        </mxCell>
        <mxCell id="pX75qmdunGjkr3cWxaQX-4" value="" style="rounded=0;whiteSpace=wrap;html=1;" parent="1" vertex="1">
          <mxGeometry x="305" y="150" width="240" height="20" as="geometry" />
        </mxCell>
        <mxCell id="pX75qmdunGjkr3cWxaQX-5" value="" style="rounded=0;whiteSpace=wrap;html=1;" parent="1" vertex="1">
          <mxGeometry x="280" y="190" width="280" height="70" as="geometry" />
        </mxCell>
        <mxCell id="pX75qmdunGjkr3cWxaQX-6" value="" style="rounded=0;whiteSpace=wrap;html=1;" parent="1" vertex="1">
          <mxGeometry x="279.2" y="280" width="280.8" height="70" as="geometry" />
        </mxCell>
        <mxCell id="pX75qmdunGjkr3cWxaQX-7" value="" style="rounded=0;whiteSpace=wrap;html=1;" parent="1" vertex="1">
          <mxGeometry x="280" y="370" width="280" height="70" as="geometry" />
        </mxCell>
        <mxCell id="pX75qmdunGjkr3cWxaQX-8" value="" style="rounded=0;whiteSpace=wrap;html=1;" parent="1" vertex="1">
          <mxGeometry x="305" y="460" width="105" height="30" as="geometry" />
        </mxCell>
        <mxCell id="fI2Ap7k8gldar36pL5vZ-1" value="" style="endArrow=none;html=1;rounded=0;entryX=1;entryY=0;entryDx=0;entryDy=0;exitX=0;exitY=1;exitDx=0;exitDy=0;" parent="1" source="pX75qmdunGjkr3cWxaQX-5" target="pX75qmdunGjkr3cWxaQX-5" edge="1">
          <mxGeometry width="50" height="50" relative="1" as="geometry">
            <mxPoint x="40" y="530" as="sourcePoint" />
            <mxPoint x="90" y="480" as="targetPoint" />
          </mxGeometry>
        </mxCell>
        <mxCell id="fI2Ap7k8gldar36pL5vZ-2" value="" style="endArrow=none;html=1;rounded=0;entryX=1;entryY=1;entryDx=0;entryDy=0;exitX=0;exitY=0;exitDx=0;exitDy=0;" parent="1" source="pX75qmdunGjkr3cWxaQX-5" target="pX75qmdunGjkr3cWxaQX-5" edge="1">
          <mxGeometry width="50" height="50" relative="1" as="geometry">
            <mxPoint x="400" y="440" as="sourcePoint" />
            <mxPoint x="450" y="390" as="targetPoint" />
          </mxGeometry>
        </mxCell>
        <mxCell id="fI2Ap7k8gldar36pL5vZ-3" value="" style="endArrow=none;html=1;rounded=0;entryX=1;entryY=0;entryDx=0;entryDy=0;exitX=0;exitY=1;exitDx=0;exitDy=0;" parent="1" source="pX75qmdunGjkr3cWxaQX-6" target="pX75qmdunGjkr3cWxaQX-6" edge="1">
          <mxGeometry width="50" height="50" relative="1" as="geometry">
            <mxPoint x="60" y="470" as="sourcePoint" />
            <mxPoint x="110" y="420" as="targetPoint" />
          </mxGeometry>
        </mxCell>
        <mxCell id="fI2Ap7k8gldar36pL5vZ-7" value="" style="endArrow=none;html=1;rounded=0;entryX=1;entryY=1;entryDx=0;entryDy=0;exitX=0;exitY=0;exitDx=0;exitDy=0;" parent="1" source="pX75qmdunGjkr3cWxaQX-6" target="pX75qmdunGjkr3cWxaQX-6" edge="1">
          <mxGeometry width="50" height="50" relative="1" as="geometry">
            <mxPoint x="60" y="670" as="sourcePoint" />
            <mxPoint x="110" y="620" as="targetPoint" />
          </mxGeometry>
        </mxCell>
        <mxCell id="fI2Ap7k8gldar36pL5vZ-8" value="" style="endArrow=none;html=1;rounded=0;entryX=1;entryY=0;entryDx=0;entryDy=0;exitX=0;exitY=1;exitDx=0;exitDy=0;" parent="1" source="pX75qmdunGjkr3cWxaQX-7" target="pX75qmdunGjkr3cWxaQX-7" edge="1">
          <mxGeometry width="50" height="50" relative="1" as="geometry">
            <mxPoint x="100" y="630" as="sourcePoint" />
            <mxPoint x="150" y="580" as="targetPoint" />
          </mxGeometry>
        </mxCell>
        <mxCell id="fI2Ap7k8gldar36pL5vZ-9" value="" style="endArrow=none;html=1;rounded=0;entryX=1;entryY=1;entryDx=0;entryDy=0;exitX=0;exitY=0;exitDx=0;exitDy=0;" parent="1" source="pX75qmdunGjkr3cWxaQX-7" target="pX75qmdunGjkr3cWxaQX-7" edge="1">
          <mxGeometry width="50" height="50" relative="1" as="geometry">
            <mxPoint x="50" y="570" as="sourcePoint" />
            <mxPoint x="100" y="520" as="targetPoint" />
          </mxGeometry>
        </mxCell>
        <mxCell id="fI2Ap7k8gldar36pL5vZ-10" value="" style="endArrow=none;html=1;rounded=0;entryX=1;entryY=0;entryDx=0;entryDy=0;exitX=0;exitY=1;exitDx=0;exitDy=0;" parent="1" source="pX75qmdunGjkr3cWxaQX-8" target="pX75qmdunGjkr3cWxaQX-8" edge="1">
          <mxGeometry width="50" height="50" relative="1" as="geometry">
            <mxPoint x="95.8" y="680" as="sourcePoint" />
            <mxPoint x="145.8" y="630" as="targetPoint" />
          </mxGeometry>
        </mxCell>
        <mxCell id="fI2Ap7k8gldar36pL5vZ-11" value="" style="endArrow=none;html=1;rounded=0;entryX=1;entryY=1;entryDx=0;entryDy=0;exitX=0;exitY=0;exitDx=0;exitDy=0;" parent="1" source="pX75qmdunGjkr3cWxaQX-8" target="pX75qmdunGjkr3cWxaQX-8" edge="1">
          <mxGeometry width="50" height="50" relative="1" as="geometry">
            <mxPoint x="55.8" y="640" as="sourcePoint" />
            <mxPoint x="105.8" y="590" as="targetPoint" />
          </mxGeometry>
        </mxCell>
        <mxCell id="zapBlhBBbPkyZua3EK77-2" value="" style="rounded=0;whiteSpace=wrap;html=1;" vertex="1" parent="1">
          <mxGeometry x="425" y="460" width="105" height="30" as="geometry" />
        </mxCell>
        <mxCell id="zapBlhBBbPkyZua3EK77-3" value="" style="endArrow=none;html=1;rounded=0;entryX=1;entryY=0;entryDx=0;entryDy=0;exitX=0;exitY=1;exitDx=0;exitDy=0;" edge="1" parent="1" source="zapBlhBBbPkyZua3EK77-2" target="zapBlhBBbPkyZua3EK77-2">
          <mxGeometry width="50" height="50" relative="1" as="geometry">
            <mxPoint x="215.8" y="680" as="sourcePoint" />
            <mxPoint x="265.8" y="630" as="targetPoint" />
          </mxGeometry>
        </mxCell>
        <mxCell id="zapBlhBBbPkyZua3EK77-4" value="" style="endArrow=none;html=1;rounded=0;entryX=1;entryY=1;entryDx=0;entryDy=0;exitX=0;exitY=0;exitDx=0;exitDy=0;" edge="1" parent="1" source="zapBlhBBbPkyZua3EK77-2" target="zapBlhBBbPkyZua3EK77-2">
          <mxGeometry width="50" height="50" relative="1" as="geometry">
            <mxPoint x="175.8" y="640" as="sourcePoint" />
            <mxPoint x="225.8" y="590" as="targetPoint" />
          </mxGeometry>
        </mxCell>
      </root>
    </mxGraphModel>
  </diagram>
</mxfile>
